<?xml version="1.0" encoding="utf-8"?>
<!-- Generator: Adobe Illustrator 23.0.1, SVG Export Plug-In . SVG Version: 6.00 Build 0)  -->
<svg version="1.1" id="Layer_1" xmlns="http://www.w3.org/2000/svg" xmlns:xlink="http://www.w3.org/1999/xlink" x="0px" y="0px"
	 viewBox="0 0 1400 980" style="enable-background:new 0 0 1400 980;" xml:space="preserve">
<style type="text/css">
	.st0{fill:#FFFFFF;}
	.st1{fill:#71D3D1;}
	.st2{fill:#F9ED32;}
	.st3{fill:#F2C333;}
	.st4{fill:#45637F;}
	.st5{fill:#E7E7E7;}
	.st6{fill:#59595A;}
	.st7{fill:#54C3F0;}
	.st8{fill:#88D3E3;}
	.st9{fill:#F1F2F2;}
	.st10{fill:#E3E3E3;}
	.st11{fill:#282727;}
	.st12{fill:#333333;}
	.st13{fill:#424242;}
	.st14{fill:#C51F3F;}
	.st15{fill:#CD2D66;}
	.st16{fill:#EE3869;}
	.st17{fill:#F2F2F2;}
	.st18{fill:#5BA6A6;}
	.st19{fill:#D9AD3E;}
	.st20{fill:#F2C436;}
	.st21{fill:#DED5CB;}
	.st22{fill:#414042;}
	.st23{fill:#939598;}
	.st24{fill:#68CDEF;}
	.st25{fill:#7DD2F0;}
	.st26{fill:#F2B137;}
	.st27{fill:#ECBB2B;}
	.st28{fill:#151716;}
	.st29{fill:#3A99D5;}
	.st30{fill:#CE1F40;}
	.st31{fill:#ED1A3D;}
	.st32{fill:#E5CF2E;}
</style>
<g id="XMLID_3401_">
	<path id="XMLID_3402_" class="st0" d="M626.9,933.5h-1l-3.8-13.2c-0.3-1.1-0.5-2-0.7-2.7c-0.1,0.7-0.3,1.5-0.5,2.3
		s-1.5,5.4-3.8,13.5h-1l-4.7-17.1h1.3l3,11c0.1,0.4,0.2,0.9,0.3,1.2s0.2,0.7,0.3,1.1s0.2,0.7,0.2,1s0.1,0.6,0.2,0.9
		c0.2-1.1,0.6-2.7,1.2-4.8l2.9-10.4h1.3l3.4,11.9c0.4,1.4,0.7,2.5,0.9,3.3c0.1-0.6,0.2-1.2,0.4-1.8s1.4-5.1,3.6-13.5h1.2
		L626.9,933.5z"/>
	<path id="XMLID_3404_" class="st0" d="M656,933.5h-9.4v-17.1h9.4v1.1h-8.2v6.5h7.7v1.1h-7.7v7.3h8.2V933.5z"/>
	<path id="XMLID_3406_" class="st0" d="M680.1,927.5h-7l-2.4,6h-1.3l6.9-17.2h0.8l6.8,17.2h-1.3L680.1,927.5z M673.6,926.4h6.1
		l-2.3-6.2c-0.2-0.5-0.4-1.2-0.7-2c-0.2,0.8-0.4,1.4-0.7,2L673.6,926.4z"/>
	<path id="XMLID_3409_" class="st0" d="M702.7,933.5h-1.2v-16h-5.6v-1.1h12.3v1.1h-5.6L702.7,933.5L702.7,933.5z"/>
	<path id="XMLID_3411_" class="st0" d="M735.2,933.5H734v-8.4h-10v8.4h-1.2v-17.1h1.2v7.6h10v-7.6h1.2V933.5z"/>
	<path id="XMLID_3413_" class="st0" d="M761.5,933.5h-9.4v-17.1h9.4v1.1h-8.2v6.5h7.7v1.1h-7.7v7.3h8.2V933.5z"/>
	<path id="XMLID_3415_" class="st0" d="M778.5,926.1v7.5h-1.2v-17.1h4.1c2.1,0,3.7,0.4,4.7,1.2s1.5,2,1.5,3.5c0,1.1-0.3,2.1-0.9,2.9
		s-1.5,1.4-2.8,1.7l4.7,7.8h-1.4l-4.4-7.5L778.5,926.1L778.5,926.1z M778.5,925h3.3c1.4,0,2.6-0.3,3.4-1s1.2-1.6,1.2-2.9
		c0-1.3-0.4-2.3-1.2-2.8s-2.1-0.9-3.8-0.9h-2.8v7.6H778.5z"/>
</g>
<g id="XMLID_757_">
	<g id="XMLID_519_">
		<path id="XMLID_3191_" class="st1" d="M616.3,492.5h-6.5c-1.4,0-2.5-1.1-2.5-2.5s1.1-2.5,2.5-2.5h6.5c1.4,0,2.5,1.1,2.5,2.5
			S617.7,492.5,616.3,492.5z"/>
	</g>
	<g id="XMLID_518_">
		<path id="XMLID_3157_" class="st1" d="M425.5,777.5h-13c-1.4,0-2.5-1.1-2.5-2.5s1.1-2.5,2.5-2.5h13c1.4,0,2.5,1.1,2.5,2.5
			S426.9,777.5,425.5,777.5z M401.6,777.5h-13c-1.4,0-2.5-1.1-2.5-2.5s1.1-2.5,2.5-2.5h13c1.4,0,2.5,1.1,2.5,2.5
			S403,777.5,401.6,777.5z M377.7,777.5h-13c-1.4,0-2.5-1.1-2.5-2.5s1.1-2.5,2.5-2.5h13c1.4,0,2.5,1.1,2.5,2.5
			S379,777.5,377.7,777.5z M353.7,777.5h-13c-1.4,0-2.5-1.1-2.5-2.5s1.1-2.5,2.5-2.5h13c1.4,0,2.5,1.1,2.5,2.5
			S355.1,777.5,353.7,777.5z M329.8,777.5h-13c-1.4,0-2.5-1.1-2.5-2.5s1.1-2.5,2.5-2.5h13c1.4,0,2.5,1.1,2.5,2.5
			S331.2,777.5,329.8,777.5z M305.9,777.5h-13c-1.4,0-2.5-1.1-2.5-2.5s1.1-2.5,2.5-2.5h13c1.4,0,2.5,1.1,2.5,2.5
			S307.3,777.5,305.9,777.5z M282,777.5h-1c-4.4,0-8.7-1-12.7-2.9c-1.2-0.6-1.8-2.1-1.2-3.3c0.6-1.2,2.1-1.8,3.3-1.2
			c3.3,1.6,6.8,2.4,10.5,2.4h1c1.4,0,2.5,1.1,2.5,2.5S283.4,777.5,282,777.5z M260.8,768.3c-0.7,0-1.4-0.3-1.9-0.8
			c-3.1-3.5-5.4-7.8-6.5-12.4c-0.3-1.3,0.5-2.7,1.8-3s2.7,0.5,3,1.8c0.9,3.8,2.8,7.4,5.4,10.3c0.9,1,0.8,2.6-0.2,3.5
			C261.9,768.1,261.4,768.3,260.8,768.3z M254,746.1c-1.4,0-2.5-1.1-2.5-2.5v-13c0-1.4,1.1-2.5,2.5-2.5s2.5,1.1,2.5,2.5v13
			C256.5,745,255.4,746.1,254,746.1z M254,722.2c-1.4,0-2.5-1.1-2.5-2.5v-13c0-1.4,1.1-2.5,2.5-2.5s2.5,1.1,2.5,2.5v13
			C256.5,721,255.4,722.2,254,722.2z M254,698.3c-1.4,0-2.5-1.1-2.5-2.5v-13c0-1.4,1.1-2.5,2.5-2.5s2.5,1.1,2.5,2.5v13
			C256.5,697.1,255.4,698.3,254,698.3z M254,674.3c-1.4,0-2.5-1.1-2.5-2.5v-13c0-1.4,1.1-2.5,2.5-2.5s2.5,1.1,2.5,2.5v13
			C256.5,673.2,255.4,674.3,254,674.3z M254,650.4c-1.4,0-2.5-1.1-2.5-2.5v-13c0-1.4,1.1-2.5,2.5-2.5s2.5,1.1,2.5,2.5v13
			C256.5,649.3,255.4,650.4,254,650.4z M254,626.5c-1.4,0-2.5-1.1-2.5-2.5v-13c0-1.4,1.1-2.5,2.5-2.5s2.5,1.1,2.5,2.5v13
			C256.5,625.4,255.4,626.5,254,626.5z M254,602.6c-1.4,0-2.5-1.1-2.5-2.5v-13c0-1.4,1.1-2.5,2.5-2.5s2.5,1.1,2.5,2.5v13
			C256.5,601.5,255.4,602.6,254,602.6z M254,578.7c-1.4,0-2.5-1.1-2.5-2.5v-13c0-1.4,1.1-2.5,2.5-2.5s2.5,1.1,2.5,2.5v13
			C256.5,577.6,255.4,578.7,254,578.7z M254,554.8c-1.4,0-2.5-1.1-2.5-2.5v-13c0-1.4,1.1-2.5,2.5-2.5s2.5,1.1,2.5,2.5v13
			C256.5,553.7,255.4,554.8,254,554.8z M254,530.9c-1.4,0-2.5-1.1-2.5-2.5V517c0-0.6,0-1.2,0.1-1.8c0.1-1.4,1.2-2.4,2.6-2.3
			c1.4,0.1,2.4,1.3,2.3,2.6c0,0.5,0,1,0,1.5v11.3C256.5,529.8,255.4,530.9,254,530.9z M256.9,507.4c-0.4,0-0.8-0.1-1.1-0.3
			c-1.2-0.6-1.7-2.1-1.1-3.4c2.1-4.2,5.3-7.9,9.1-10.7c1.1-0.8,2.7-0.6,3.5,0.6c0.8,1.1,0.6,2.7-0.6,3.5c-3.2,2.3-5.8,5.4-7.5,8.9
			C258.7,506.9,257.8,507.4,256.9,507.4z M275.1,493.2c-1.1,0-2.2-0.8-2.4-2c-0.3-1.3,0.5-2.7,1.9-3c2.1-0.5,4.3-0.7,6.5-0.7h7
			c1.4,0,2.5,1.1,2.5,2.5s-1.1,2.5-2.5,2.5h-7c-1.8,0-3.6,0.2-5.4,0.6C275.5,493.1,275.3,493.2,275.1,493.2z M598.9,492.5h-13
			c-1.4,0-2.5-1.1-2.5-2.5s1.1-2.5,2.5-2.5h13c1.4,0,2.5,1.1,2.5,2.5S600.3,492.5,598.9,492.5z M575,492.5h-13
			c-1.4,0-2.5-1.1-2.5-2.5s1.1-2.5,2.5-2.5h13c1.4,0,2.5,1.1,2.5,2.5S576.3,492.5,575,492.5z M551.1,492.5h-13
			c-1.4,0-2.5-1.1-2.5-2.5s1.1-2.5,2.5-2.5h13c1.4,0,2.5,1.1,2.5,2.5S552.4,492.5,551.1,492.5z M527.1,492.5h-13
			c-1.4,0-2.5-1.1-2.5-2.5s1.1-2.5,2.5-2.5h13c1.4,0,2.5,1.1,2.5,2.5S528.5,492.5,527.1,492.5z M503.2,492.5h-13
			c-1.4,0-2.5-1.1-2.5-2.5s1.1-2.5,2.5-2.5h13c1.4,0,2.5,1.1,2.5,2.5S504.6,492.5,503.2,492.5z M479.3,492.5h-13
			c-1.4,0-2.5-1.1-2.5-2.5s1.1-2.5,2.5-2.5h13c1.4,0,2.5,1.1,2.5,2.5S480.7,492.5,479.3,492.5z M455.4,492.5h-13
			c-1.4,0-2.5-1.1-2.5-2.5s1.1-2.5,2.5-2.5h13c1.4,0,2.5,1.1,2.5,2.5S456.8,492.5,455.4,492.5z M431.5,492.5h-13
			c-1.4,0-2.5-1.1-2.5-2.5s1.1-2.5,2.5-2.5h13c1.4,0,2.5,1.1,2.5,2.5S432.9,492.5,431.5,492.5z M407.6,492.5h-13
			c-1.4,0-2.5-1.1-2.5-2.5s1.1-2.5,2.5-2.5h13c1.4,0,2.5,1.1,2.5,2.5S409,492.5,407.6,492.5z M383.7,492.5h-13
			c-1.4,0-2.5-1.1-2.5-2.5s1.1-2.5,2.5-2.5h13c1.4,0,2.5,1.1,2.5,2.5S385,492.5,383.7,492.5z M359.8,492.5h-13
			c-1.4,0-2.5-1.1-2.5-2.5s1.1-2.5,2.5-2.5h13c1.4,0,2.5,1.1,2.5,2.5S361.1,492.5,359.8,492.5z M335.8,492.5h-13
			c-1.4,0-2.5-1.1-2.5-2.5s1.1-2.5,2.5-2.5h13c1.4,0,2.5,1.1,2.5,2.5S337.2,492.5,335.8,492.5z M311.9,492.5h-13
			c-1.4,0-2.5-1.1-2.5-2.5s1.1-2.5,2.5-2.5h13c1.4,0,2.5,1.1,2.5,2.5S313.3,492.5,311.9,492.5z"/>
	</g>
	<g id="XMLID_517_">
		<path id="XMLID_3156_" class="st1" d="M443,777.5h-6.5c-1.4,0-2.5-1.1-2.5-2.5s1.1-2.5,2.5-2.5h6.5c1.4,0,2.5,1.1,2.5,2.5
			S444.4,777.5,443,777.5z"/>
	</g>
</g>
<g id="XMLID_528_">
	<g id="XMLID_516_">
		<path id="XMLID_3155_" class="st1" d="M1098.5,250c-1.4,0-2.5-1.1-2.5-2.5V241c0-1.4,1.1-2.5,2.5-2.5s2.5,1.1,2.5,2.5v6.5
			C1101,248.9,1099.8,250,1098.5,250z"/>
	</g>
	<g id="XMLID_515_">
		<path id="XMLID_3111_" class="st1" d="M1071.4,834h-3.3c-1.4,0-2.5-1.1-2.5-2.5s1.1-2.5,2.5-2.5h3.3c3,0,5.9-0.5,8.7-1.6
			c1.3-0.5,2.7,0.2,3.2,1.5s-0.2,2.7-1.5,3.2C1078.6,833.4,1075,834,1071.4,834z M1057.1,834H1044c-1.4,0-2.5-1.1-2.5-2.5
			s1.1-2.5,2.5-2.5h13.1c1.4,0,2.5,1.1,2.5,2.5S1058.5,834,1057.1,834z M1033,834h-13.1c-1.4,0-2.5-1.1-2.5-2.5s1.1-2.5,2.5-2.5
			h13.1c1.4,0,2.5,1.1,2.5,2.5S1034.4,834,1033,834z M1008.9,834h-13.1c-1.4,0-2.5-1.1-2.5-2.5s1.1-2.5,2.5-2.5h13.1
			c1.4,0,2.5,1.1,2.5,2.5S1010.3,834,1008.9,834z M984.8,834h-13.1c-1.4,0-2.5-1.1-2.5-2.5s1.1-2.5,2.5-2.5h13.1
			c1.4,0,2.5,1.1,2.5,2.5S986.2,834,984.8,834z M960.7,834h-13.1c-1.4,0-2.5-1.1-2.5-2.5s1.1-2.5,2.5-2.5h13.1
			c1.4,0,2.5,1.1,2.5,2.5S962.1,834,960.7,834z M936.6,834h-13.1c-1.4,0-2.5-1.1-2.5-2.5s1.1-2.5,2.5-2.5h13.1
			c1.4,0,2.5,1.1,2.5,2.5S938,834,936.6,834z M912.5,834h-13.1c-1.4,0-2.5-1.1-2.5-2.5s1.1-2.5,2.5-2.5h13.1c1.4,0,2.5,1.1,2.5,2.5
			S913.8,834,912.5,834z M888.4,834h-13.1c-1.4,0-2.5-1.1-2.5-2.5s1.1-2.5,2.5-2.5h13.1c1.4,0,2.5,1.1,2.5,2.5S889.7,834,888.4,834z
			 M864.2,834h-13.1c-1.4,0-2.5-1.1-2.5-2.5s1.1-2.5,2.5-2.5h13.1c1.4,0,2.5,1.1,2.5,2.5S865.6,834,864.2,834z M840.1,834H827
			c-1.4,0-2.5-1.1-2.5-2.5s1.1-2.5,2.5-2.5h13.1c1.4,0,2.5,1.1,2.5,2.5S841.5,834,840.1,834z M816,834h-13c-1.4,0-2.5-1.1-2.5-2.5
			s1.1-2.5,2.5-2.5h13c1.4,0,2.5,1.1,2.5,2.5S817.4,834,816,834z M791.9,834h-13.1c-1.4,0-2.5-1.1-2.5-2.5s1.1-2.5,2.5-2.5h13.1
			c1.4,0,2.5,1.1,2.5,2.5S793.3,834,791.9,834z M767.8,834h-13.1c-1.4,0-2.5-1.1-2.5-2.5s1.1-2.5,2.5-2.5h13.1
			c1.4,0,2.5,1.1,2.5,2.5S769.2,834,767.8,834z M743.7,834h-13.1c-1.4,0-2.5-1.1-2.5-2.5s1.1-2.5,2.5-2.5h13.1
			c1.4,0,2.5,1.1,2.5,2.5S745.1,834,743.7,834z M719.6,834L719.6,834c-4.9-0.2-9.5-1.7-13.6-4.1c-1.2-0.7-1.6-2.2-0.9-3.4
			c0.7-1.2,2.2-1.6,3.4-0.9c3.4,2,7.3,3.2,11.2,3.4c1.4,0.1,2.4,1.2,2.4,2.6C722,833,720.9,834,719.6,834z M1090.3,826.4
			c-0.7,0-1.3-0.3-1.8-0.8c-1-1-0.9-2.6,0.1-3.5c2.8-2.8,5-6.2,6.2-9.9c0.4-1.3,1.8-2,3.2-1.6c1.3,0.4,2,1.8,1.6,3.2
			c-1.5,4.5-4.1,8.7-7.5,12C1091.5,826.2,1090.9,826.4,1090.3,826.4z M699.1,822.8c-0.8,0-1.5-0.4-2-1c-2.8-3.9-4.6-8.4-5.3-13.1
			c-0.2-1.4,0.8-2.6,2.1-2.8c1.4-0.2,2.6,0.8,2.8,2.1c0.6,3.9,2.1,7.7,4.4,10.9c0.8,1.1,0.6,2.7-0.6,3.5
			C700.1,822.7,699.6,822.8,699.1,822.8z M1098.5,804.5c-1.4,0-2.5-1.1-2.5-2.5v-13c0-1.4,1.1-2.5,2.5-2.5s2.5,1.1,2.5,2.5v13
			C1101,803.4,1099.8,804.5,1098.5,804.5z M694,799.8c-1.4,0-2.5-1.1-2.5-2.5v-13.1c0-1.4,1.1-2.5,2.5-2.5s2.5,1.1,2.5,2.5v13.1
			C696.5,798.7,695.4,799.8,694,799.8z M1098.5,780.4c-1.4,0-2.5-1.1-2.5-2.5v-13.1c0-1.4,1.1-2.5,2.5-2.5s2.5,1.1,2.5,2.5v13.1
			C1101,779.3,1099.8,780.4,1098.5,780.4z M694,775.7c-1.4,0-2.5-1.1-2.5-2.5v-13.1c0-1.4,1.1-2.5,2.5-2.5s2.5,1.1,2.5,2.5v13.1
			C696.5,774.6,695.4,775.7,694,775.7z M1098.5,756.3c-1.4,0-2.5-1.1-2.5-2.5v-13.1c0-1.4,1.1-2.5,2.5-2.5s2.5,1.1,2.5,2.5v13.1
			C1101,755.2,1099.8,756.3,1098.5,756.3z M1098.5,732.2c-1.4,0-2.5-1.1-2.5-2.5v-13.1c0-1.4,1.1-2.5,2.5-2.5s2.5,1.1,2.5,2.5v13.1
			C1101,731.1,1099.8,732.2,1098.5,732.2z M1098.5,708.1c-1.4,0-2.5-1.1-2.5-2.5v-13.1c0-1.4,1.1-2.5,2.5-2.5s2.5,1.1,2.5,2.5v13.1
			C1101,707,1099.8,708.1,1098.5,708.1z M1098.5,684c-1.4,0-2.5-1.1-2.5-2.5v-13.1c0-1.4,1.1-2.5,2.5-2.5s2.5,1.1,2.5,2.5v13.1
			C1101,682.9,1099.8,684,1098.5,684z M1098.5,659.9c-1.4,0-2.5-1.1-2.5-2.5v-13.1c0-1.4,1.1-2.5,2.5-2.5s2.5,1.1,2.5,2.5v13.1
			C1101,658.7,1099.8,659.9,1098.5,659.9z M1098.5,635.8c-1.4,0-2.5-1.1-2.5-2.5v-13.1c0-1.4,1.1-2.5,2.5-2.5s2.5,1.1,2.5,2.5v13.1
			C1101,634.6,1099.8,635.8,1098.5,635.8z M1098.5,611.6c-1.4,0-2.5-1.1-2.5-2.5V596c0-1.4,1.1-2.5,2.5-2.5s2.5,1.1,2.5,2.5v13.1
			C1101,610.5,1099.8,611.6,1098.5,611.6z M1098.5,587.5c-1.4,0-2.5-1.1-2.5-2.5v-13c0-1.4,1.1-2.5,2.5-2.5s2.5,1.1,2.5,2.5v13
			C1101,586.4,1099.8,587.5,1098.5,587.5z M1098.5,563.4c-1.4,0-2.5-1.1-2.5-2.5v-13.1c0-1.4,1.1-2.5,2.5-2.5s2.5,1.1,2.5,2.5v13.1
			C1101,562.3,1099.8,563.4,1098.5,563.4z M1098.5,539.3c-1.4,0-2.5-1.1-2.5-2.5v-13.1c0-1.4,1.1-2.5,2.5-2.5s2.5,1.1,2.5,2.5v13.1
			C1101,538.2,1099.8,539.3,1098.5,539.3z M1098.5,515.2c-1.4,0-2.5-1.1-2.5-2.5v-13.1c0-1.4,1.1-2.5,2.5-2.5s2.5,1.1,2.5,2.5v13.1
			C1101,514.1,1099.8,515.2,1098.5,515.2z M1098.5,491.1c-1.4,0-2.5-1.1-2.5-2.5v-13.1c0-1.4,1.1-2.5,2.5-2.5s2.5,1.1,2.5,2.5v13.1
			C1101,490,1099.8,491.1,1098.5,491.1z M1098.5,467c-1.4,0-2.5-1.1-2.5-2.5v-13.1c0-1.4,1.1-2.5,2.5-2.5s2.5,1.1,2.5,2.5v13.1
			C1101,465.9,1099.8,467,1098.5,467z M1098.5,442.9c-1.4,0-2.5-1.1-2.5-2.5v-13.1c0-1.4,1.1-2.5,2.5-2.5s2.5,1.1,2.5,2.5v13.1
			C1101,441.8,1099.8,442.9,1098.5,442.9z M1098.5,418.8c-1.4,0-2.5-1.1-2.5-2.5v-13.1c0-1.4,1.1-2.5,2.5-2.5s2.5,1.1,2.5,2.5v13.1
			C1101,417.7,1099.8,418.8,1098.5,418.8z M1098.5,394.7c-1.4,0-2.5-1.1-2.5-2.5v-13.1c0-1.4,1.1-2.5,2.5-2.5s2.5,1.1,2.5,2.5v13.1
			C1101,393.6,1099.8,394.7,1098.5,394.7z M1098.5,370.6c-1.4,0-2.5-1.1-2.5-2.5V355c0-1.4,1.1-2.5,2.5-2.5s2.5,1.1,2.5,2.5v13.1
			C1101,369.4,1099.8,370.6,1098.5,370.6z M1098.5,346.5c-1.4,0-2.5-1.1-2.5-2.5v-13.1c0-1.4,1.1-2.5,2.5-2.5s2.5,1.1,2.5,2.5V344
			C1101,345.3,1099.8,346.5,1098.5,346.5z M1098.5,322.3c-1.4,0-2.5-1.1-2.5-2.5v-13.1c0-1.4,1.1-2.5,2.5-2.5s2.5,1.1,2.5,2.5v13.1
			C1101,321.2,1099.8,322.3,1098.5,322.3z M1098.5,298.2c-1.4,0-2.5-1.1-2.5-2.5v-13.1c0-1.4,1.1-2.5,2.5-2.5s2.5,1.1,2.5,2.5v13.1
			C1101,297.1,1099.8,298.2,1098.5,298.2z M1098.5,274.1c-1.4,0-2.5-1.1-2.5-2.5v-13.1c0-1.4,1.1-2.5,2.5-2.5s2.5,1.1,2.5,2.5v13.1
			C1101,273,1099.8,274.1,1098.5,274.1z"/>
	</g>
	<g id="XMLID_514_">
		<path id="XMLID_3110_" class="st1" d="M694,751.5c-1.4,0-2.5-1.1-2.5-2.5v-6.5c0-1.4,1.1-2.5,2.5-2.5s2.5,1.1,2.5,2.5v6.5
			C696.5,750.4,695.4,751.5,694,751.5z"/>
	</g>
</g>
<circle id="XMLID_553_" class="st2" cx="444.9" cy="775" r="57.4"/>
<g id="XMLID_499_">
	<path id="XMLID_533_" class="st3" d="M626.2,296.6c0.1-0.1,0.1-0.1,0.2-0.2c2.4-2.6,4.7-5.3,6.6-8.1l0,0c2.4-3.4,4.4-6.9,6.1-10.6
		l0,0c0.7-1.5,1.3-2.9,1.9-4.4l0,0c0.9-2.2,1.6-4.5,2.2-6.8v-0.1c0.4-1.5,0.8-3,1.1-4.6v-0.1c0.5-2.3,0.8-4.6,1-6.9
		c0-0.1,0-0.1,0-0.2c0.2-1.5,0.3-3.1,0.3-4.6c0-0.1,0-0.1,0-0.2c0-0.7,0-1.5,0-2.2v-0.1c0-1.5-0.1-3.1-0.2-4.6c0-0.1,0-0.2,0-0.3
		c-0.1-1.5-0.3-3-0.5-4.5c0-0.1,0-0.2,0-0.2c-0.1-0.7-0.2-1.4-0.3-2.1c0-0.1,0-0.1,0-0.2c-0.3-1.5-0.6-3-0.9-4.5
		c0-0.1,0-0.2-0.1-0.3c-0.4-1.5-0.8-2.9-1.2-4.4c0-0.1-0.1-0.2-0.1-0.3c-0.2-0.7-0.4-1.3-0.7-2c0-0.1,0-0.1-0.1-0.2
		c-0.3-0.7-0.5-1.5-0.8-2.2l0,0l0,0c-3.3-8.5-8.4-16.6-15.1-23.6c-27.3-28.3-72.3-29-100.5-1.8c-15.6,15-22.8,35.5-21.6,55.5l0,0
		l0,0c0.2,2.5,0.4,5.1,0.9,7.6l0,0c0.1,0.5,0.2,0.9,0.2,1.4c0,0.1,0,0.1,0,0.2c0.1,0.4,0.2,0.8,0.3,1.3c0,0.1,0,0.2,0.1,0.3
		c0.1,0.4,0.2,0.8,0.3,1.2c0,0.1,0.1,0.2,0.1,0.3c0.1,0.4,0.2,0.8,0.3,1.2c0,0.1,0.1,0.2,0.1,0.3c0.1,0.4,0.2,0.8,0.3,1.2
		c0,0.1,0,0.2,0.1,0.2c0.5,1.8,1.1,3.7,1.8,5.5c0,0.1,0.1,0.2,0.1,0.2c0.1,0.4,0.3,0.7,0.4,1.1c0.1,0.2,0.1,0.3,0.2,0.5
		c0.1,0.3,0.3,0.6,0.4,1c0.1,0.2,0.2,0.4,0.2,0.6c0.1,0.3,0.3,0.6,0.4,0.9c0.1,0.2,0.2,0.4,0.3,0.6c0.1,0.3,0.3,0.6,0.4,0.9
		c0.1,0.2,0.2,0.4,0.3,0.6c0.1,0.3,0.3,0.6,0.4,0.8c0.1,0.2,0.2,0.4,0.3,0.7c0.1,0.3,0.3,0.5,0.4,0.8c0.1,0.2,0.3,0.5,0.4,0.7
		c0.1,0.3,0.3,0.5,0.4,0.8c0.2,0.3,0.3,0.5,0.5,0.8s0.4,0.6,0.5,0.9c0.2,0.4,0.5,0.7,0.7,1.1c0.1,0.2,0.3,0.4,0.4,0.6
		c0.2,0.3,0.4,0.6,0.5,0.8c0.1,0.2,0.3,0.4,0.4,0.6c0.2,0.3,0.4,0.5,0.5,0.8c0.1,0.2,0.3,0.4,0.4,0.6c0.2,0.3,0.4,0.5,0.6,0.8
		c0.1,0.2,0.3,0.4,0.5,0.6c0.2,0.3,0.4,0.5,0.6,0.8c0.2,0.2,0.3,0.4,0.5,0.6c0.2,0.3,0.4,0.5,0.6,0.8c0.2,0.2,0.3,0.4,0.5,0.6
		c0.2,0.3,0.5,0.5,0.7,0.8c0.1,0.2,0.3,0.3,0.4,0.5c0.3,0.3,0.5,0.6,0.8,0.9c0.1,0.1,0.2,0.3,0.4,0.4c0.4,0.4,0.8,0.9,1.2,1.3
		c14.1,14.6,32.8,21.8,51.6,21.7l0,0c4,0,7.9-0.4,11.9-1.1c0.6-0.1,1.1-0.2,1.7-0.3c0.7-0.1,1.4-0.3,2.1-0.5
		c0.8-0.2,1.7-0.4,2.5-0.6c2-0.5,4-1.2,6-1.9c2.5-0.9,5-2,7.4-3.2c2.2-1.1,4.4-2.4,6.6-3.8c2-1.3,4-2.7,5.9-4.3
		c1.7-1.4,3.3-2.8,4.9-4.3l0,0C624.8,298,625.5,297.3,626.2,296.6z"/>
	<path id="XMLID_534_" class="st3" d="M574.2,329.8c-2.8,0-5.1,2.3-5.1,5.1v22.7c0,2.8,2.3,5.1,5.1,5.1s5.1-2.3,5.1-5.1v-22.7
		C579.3,332.1,577.1,329.8,574.2,329.8z"/>
	<path id="XMLID_535_" class="st3" d="M639.8,306.1c-2-2-5.2-2-7.2,0s-2,5.2,0,7.2l16,16c1,1,2.3,1.5,3.6,1.5s2.6-0.5,3.6-1.5
		c2-2,2-5.2,0-7.2L639.8,306.1z"/>
	<path id="XMLID_536_" class="st3" d="M684.8,243h-22.7c-2.8,0-5.1,2.3-5.1,5.1s2.3,5.1,5.1,5.1h22.7c2.8,0,5.1-2.3,5.1-5.1
		C689.9,245.3,687.6,243,684.8,243z"/>
	<path id="XMLID_537_" class="st3" d="M636.9,191.3c1.3,0,2.6-0.5,3.6-1.5l16-16c2-2,2-5.2,0-7.2s-5.2-2-7.2,0l-16,16
		c-2,2-2,5.2,0,7.2C634.3,190.8,635.6,191.3,636.9,191.3z"/>
	<path id="XMLID_538_" class="st3" d="M575.3,165.3c2.8,0,5.1-2.3,5.1-5.1v-22.7c0-2.8-2.3-5.1-5.1-5.1s-5.1,2.3-5.1,5.1v22.7
		C570.2,163,572.4,165.3,575.3,165.3z"/>
	<path id="XMLID_539_" class="st3" d="M509.7,189c1,1,2.3,1.5,3.6,1.5s2.6-0.5,3.6-1.5c2-2,2-5.2,0-7.2l-16-16c-2-2-5.2-2-7.2,0
		s-2,5.2,0,7.2L509.7,189z"/>
	<path id="XMLID_540_" class="st3" d="M487.4,242h-22.7c-2.8,0-5.1,2.3-5.1,5.1s2.3,5.1,5.1,5.1h22.7c2.8,0,5.1-2.3,5.1-5.1
		C492.5,244.2,490.2,242,487.4,242z"/>
	<path id="XMLID_541_" class="st3" d="M509,305.4l-16,16c-2,2-2,5.2,0,7.2c1,1,2.3,1.5,3.6,1.5s2.6-0.5,3.6-1.5l16-16
		c2-2,2-5.2,0-7.2S511,303.4,509,305.4z"/>
</g>
<path id="XMLID_1028_" class="st4" d="M1033.1,352.4L1033.1,352.4L1033.1,352.4c0-16.6-12.9-30.1-28.9-30.1
	c-10.4,0-19.5,5.7-24.6,14.3c-2.8-1.8-6-2.8-9.5-2.8c-9.9,0-17.9,8.4-17.9,18.7c0,0.3,0,0.6,0,0.9c-2.1-0.6-4.3-0.9-6.5-0.9
	c-13.5,0-24.4,11.4-24.4,25.5s10.9,25.5,24.4,25.5h87.5c13.5,0,24.4-11.4,24.4-25.5C1057.5,363.8,1046.6,352.4,1033.1,352.4z"/>
<path id="XMLID_1063_" class="st4" d="M840.1,145.9L840.1,145.9L840.1,145.9c0-7.5-5.8-13.5-13-13.5c-4.7,0-8.7,2.6-11,6.4
	c-1.2-0.8-2.7-1.3-4.3-1.3c-4.4,0-8.1,3.8-8.1,8.4c0,0.1,0,0.3,0,0.4c-0.9-0.3-1.9-0.4-2.9-0.4c-6.1,0-11,5.1-11,11.4
	c0,6.3,4.9,11.4,11,11.4h39.3c6.1,0,11-5.1,11-11.4C851.1,151,846.1,145.9,840.1,145.9z"/>
<path id="XMLID_1078_" class="st4" d="M213.3,796.2L213.3,796.2L213.3,796.2c0-7.5-5.8-13.5-13-13.5c-4.7,0-8.7,2.6-11,6.4
	c-1.2-0.8-2.7-1.3-4.3-1.3c-4.4,0-8.1,3.8-8.1,8.4c0,0.1,0,0.3,0,0.4c-0.9-0.3-1.9-0.4-2.9-0.4c-6.1,0-11,5.1-11,11.4
	c0,6.3,4.9,11.4,11,11.4h39.3c6.1,0,11-5.1,11-11.4C224.2,801.3,219.3,796.2,213.3,796.2z"/>
<path id="XMLID_985_" class="st4" d="M600.3,607.2L600.3,607.2L600.3,607.2c0-16-12.5-29-27.9-29c-10,0-18.8,5.5-23.7,13.8
	c-2.7-1.7-5.8-2.7-9.2-2.7c-9.5,0-17.3,8.1-17.3,18c0,0.3,0,0.6,0,0.9c-2-0.6-4.1-0.9-6.3-0.9c-13,0-23.5,11-23.5,24.5
	s10.5,24.5,23.5,24.5h84.2c13,0,23.5-11,23.5-24.5C623.8,618.2,613.3,607.2,600.3,607.2z"/>
<path id="XMLID_1027_" class="st4" d="M229,175.8L229,175.8L229,175.8c0-16-12.5-29-27.9-29c-10,0-18.8,5.5-23.7,13.8
	c-2.7-1.7-5.8-2.7-9.2-2.7c-9.5,0-17.3,8.1-17.3,18c0,0.3,0,0.6,0,0.9c-2-0.6-4.1-0.9-6.3-0.9c-13,0-23.5,11-23.5,24.5
	s10.5,24.5,23.5,24.5H229c13,0,23.5-11,23.5-24.5C252.6,186.8,242,175.8,229,175.8z"/>
<path id="XMLID_1521_" class="st4" d="M939,573.1c0.5-0.6,1.1-1.3,1.6-2c0.1-0.1,0.2-0.3,0.3-0.4c0.6-0.8,1.2-1.6,1.7-2.5
	c0.1-0.2,0.2-0.4,0.3-0.5c0.4-0.7,0.9-1.4,1.3-2.1c0.1-0.1,0.2-0.3,0.2-0.4l0,0c4.3-7.5,6.7-16.1,6.7-25.4
	c0-28.3-22.9-51.2-51.2-51.2c-2.5,0-4.9,0.2-7.2,0.5c-6.7-26.2-30.5-45.6-58.9-45.6c-30.2,0-55.2,22-60,50.9c-3.9-1-8-1.5-12.2-1.5
	c-27.2,0-49.2,22-49.2,49.2c0,18.8,10.5,35.1,26,43.4l0,0c0.1,0.1,0.2,0.1,0.3,0.1c0.7,0.4,1.4,0.7,2.1,1c0.2,0.1,0.5,0.2,0.7,0.3
	c0.6,0.3,1.2,0.5,1.9,0.8c0.2,0.1,0.5,0.2,0.7,0.3c0.7,0.3,1.4,0.5,2.1,0.7c0.2,0.1,0.4,0.1,0.6,0.2c0.9,0.3,1.8,0.5,2.7,0.8
	c0.1,0,0.2,0,0.3,0.1c0.8,0.2,1.6,0.4,2.4,0.5c0.3,0.1,0.6,0.1,0.9,0.2c0.6,0.1,1.3,0.2,1.9,0.3c0.3,0,0.6,0.1,1,0.1
	c0.7,0.1,1.3,0.1,2,0.2c0.3,0,0.6,0.1,0.9,0.1c0.9,0.1,1.9,0.1,2.9,0.1h86.5H898v-0.2c0.7,0,1.4,0,2,0c1.1,0,2.1,0,3.2-0.1
	c0.3,0,0.6,0,0.9-0.1c0.8-0.1,1.6-0.1,2.3-0.2c0.3,0,0.6-0.1,0.9-0.1c1-0.1,2-0.3,3.1-0.5c0.1,0,0.2,0,0.3-0.1
	c0.9-0.2,1.8-0.4,2.7-0.7c0.3-0.1,0.6-0.2,0.9-0.2c0.7-0.2,1.5-0.4,2.2-0.7c0.3-0.1,0.5-0.2,0.8-0.3c1-0.3,1.9-0.7,2.8-1.1
	c0.1-0.1,0.3-0.1,0.4-0.2c0.8-0.3,1.6-0.7,2.4-1.1c0.3-0.1,0.5-0.3,0.8-0.4c0.7-0.4,1.4-0.7,2-1.1c0.2-0.1,0.4-0.2,0.6-0.4
	c0.9-0.5,1.7-1.1,2.5-1.6c0.1-0.1,0.3-0.2,0.4-0.3c0.7-0.5,1.4-1,2-1.5c0.2-0.2,0.4-0.3,0.7-0.5c0.6-0.5,1.2-1,1.8-1.5
	c0.2-0.1,0.3-0.3,0.5-0.4c0.7-0.7,1.5-1.4,2.2-2.1c0.1-0.1,0.3-0.3,0.4-0.4c0.6-0.6,1.1-1.2,1.7-1.8
	C938.6,573.5,938.8,573.3,939,573.1z"/>
<g id="XMLID_257_">
	<path id="XMLID_1516_" class="st5" d="M787.9,601.2v-294c0-51.5-41.7-93.2-93.2-93.2l0,0c-51.5,0-93.2,41.7-93.2,93.2v294
		c-9.9,16.4-15.5,35.5-15.5,56c0,60.1,48.7,108.8,108.8,108.8s108.8-48.7,108.8-108.8C803.5,636.7,797.8,617.6,787.9,601.2z"/>
	<g id="XMLID_1515_">
		<path id="XMLID_744_" class="st0" d="M771.9,601.8c-2.5,0-4.5-2-4.5-4.5v-277c0-45.9-32.7-83.3-73-83.3c-2.5,0-4.5-2-4.5-4.5
			s2-4.5,4.5-4.5c45.2,0,82,41.4,82,92.3v277C776.4,599.8,774.4,601.8,771.9,601.8z"/>
	</g>
	<path id="XMLID_1514_" class="st6" d="M725,614.7V295.9c0-16.7-13.5-30.2-30.2-30.2l0,0c-16.7,0-30.2,13.5-30.2,30.2v318.8
		c-14.6,9.8-24.1,26.4-24.1,45.2c0,30,24.3,54.4,54.4,54.4s54.4-24.3,54.4-54.4C749.1,641.1,739.5,624.5,725,614.7z"/>
	<path id="XMLID_1513_" class="st7" d="M725,614.7v-30.6c0-16.7-13.5-30.2-30.2-30.2l0,0c-16.7,0-30.2,13.5-30.2,30.2v30.6
		c-14.6,9.8-24.1,26.4-24.1,45.2c0,30,24.3,54.4,54.4,54.4c30,0,54.4-24.3,54.4-54.4C749.1,641.1,739.5,624.5,725,614.7z"/>
	<path id="XMLID_1512_" class="st8" d="M679.6,685.3c3.7-5.1,18.2-5.7,25.8-15c9.3-7.6,9.9-22,15-25.8c2.5-1.4,8.7,2.2,11.1,10.9
		c2.5,8.4,1,22-9.2,31.7c-9.7,10.2-23.3,11.6-31.7,9.2C681.7,694,678.2,687.8,679.6,685.3z"/>
</g>
<g id="XMLID_691_">
	<path id="XMLID_632_" class="st9" d="M345,636.6c0,8.7-7.1,15.8-15.8,15.8H187c-8.7,0-15.8-7.1-15.8-15.8V343.4
		c0-8.7,7.1-15.8,15.8-15.8h142.2c8.7,0,15.8,7.1,15.8,15.8V636.6z"/>
	<path id="XMLID_631_" class="st10" d="M329.2,333.1H187c-8.7,0-15.8,7.1-15.8,15.8v287.7c0,8.7,7.1,15.8,15.8,15.8h142.2
		c8.7,0,15.8-7.1,15.8-15.8V348.9C345,340.2,337.9,333.1,329.2,333.1z"/>
	<path id="XMLID_617_" class="st11" d="M323.9,367.6H193.1c-3.4,0-6.2,2.8-6.2,6.2v7.8c0-3.4,2.8-6.2,6.2-6.2h130.7
		c3.4,0,6.2,2.8,6.2,6.2v-7.8C330.1,370.3,327.3,367.6,323.9,367.6z"/>
	<path id="XMLID_601_" class="st12" d="M323.9,375.4H193.1c-3.4,0-6.2,2.8-6.2,6.2v218.7c0,3.4,2.8,6.2,6.2,6.2h130.7
		c3.4,0,6.2-2.8,6.2-6.2V381.6C330.1,378.2,327.3,375.4,323.9,375.4z"/>
	<path id="XMLID_599_" class="st12" d="M293.9,348.3c0,1-1.5,0.6-3.3,0.6h-64.3c-1.8,0-3.3,0.4-3.3-0.6v-1.5c0-1,1.5-1.1,3.3-1.1
		h64.3c1.8,0,3.3,0.1,3.3,1.1V348.3z"/>
	<path id="XMLID_591_" class="st11" d="M262.6,617.2h-10.5c-3,0-5.4,2.4-5.4,5.4v2.6c0-3,2.4-5.4,5.4-5.4h10.5c3,0,5.4,2.4,5.4,5.4
		v-2.6C268,619.7,265.6,617.2,262.6,617.2z"/>
	<path id="XMLID_590_" class="st12" d="M262.6,619.8h-10.5c-3,0-5.4,2.4-5.4,5.4v7.9c0,3,2.4,5.4,5.4,5.4h10.5c3,0,5.4-2.4,5.4-5.4
		v-7.9C268,622.3,265.6,619.8,262.6,619.8z"/>
	<path id="XMLID_589_" class="st13" d="M262.6,636.1h-10.5c-3,0-5.4-2.4-5.4-5.4v2.6c0,3,2.4,5.4,5.4,5.4h10.5c3,0,5.4-2.4,5.4-5.4
		v-2.6C268,633.6,265.6,636.1,262.6,636.1z"/>
	<path id="XMLID_583_" class="st13" d="M323.9,598.7H193.1c-3.4,0-6.2-2.8-6.2-6.2v7.8c0,3.4,2.8,6.2,6.2,6.2h130.7
		c3.4,0,6.2-2.8,6.2-6.2v-7.8C330.1,595.9,327.3,598.7,323.9,598.7z"/>
	<g id="XMLID_633_">
		<path id="XMLID_588_" class="st14" d="M295.5,474.5c4-6.6,6.3-14.3,6.3-22.5c0-23.9-19.4-43.3-43.3-43.3s-43.3,19.4-43.3,43.3
			c0,7.7,2,14.9,5.5,21.1l0,0v0.1c0.2,0.4,0.5,0.9,0.7,1.3l28.2,48.4l0,0c1.6,3.3,4.9,5.6,8.8,5.6c3.9,0,7.3-2.3,8.8-5.6l0,0
			L295.5,474.5z"/>
		<circle id="XMLID_586_" class="st15" cx="258.5" cy="452" r="25.4"/>
		<path id="XMLID_639_" class="st16" d="M258.5,431.9c-13.1,0-23.9,10-25.2,22.7c1.3,12.8,12.1,22.7,25.2,22.7
			c13.1,0,23.9-10,25.2-22.7C282.4,441.8,271.6,431.9,258.5,431.9z"/>
		<g id="XMLID_636_">
			<path id="XMLID_638_" class="st17" d="M249.5,434.5c-1.7-1.7-3.9-2.6-6.7-2.6c-1.5,0-2.9,0.2-4.1,0.7c-0.9,0.4-1.7,0.9-2.4,1.7
				c-0.7,0.8-1.3,1.6-1.8,2.6c-0.6,1.3-0.9,2.9-0.9,4.8c0,3,0.8,5.4,2.5,7.1s3.9,2.6,6.7,2.6s5-0.9,6.6-2.6c1.7-1.7,2.5-4.1,2.5-7.2
				C252,438.6,251.2,436.2,249.5,434.5z M246.6,446.5c-1,1.1-2.2,1.6-3.7,1.6s-2.8-0.6-3.8-1.7s-1.5-2.7-1.5-4.9
				c0-2.2,0.5-3.8,1.4-4.9c1-1.1,2.2-1.6,3.8-1.6s2.8,0.5,3.8,1.6c0.9,1.1,1.4,2.7,1.4,4.8C248.1,443.8,247.6,445.4,246.6,446.5z"/>
			<path id="XMLID_582_" class="st17" d="M275.8,465c-0.6,2.8-1.7,4.8-3.2,6.1c-1.5,1.3-3.2,2-5.3,2c-2.8,0-5-1-6.8-3.1
				c-1.7-2-2.6-5.5-2.6-10.3c0-4.5,0.9-7.8,2.6-9.9c1.8-2,4.1-3,6.9-3c2,0,3.8,0.6,5.2,1.7c1.4,1.1,2.4,2.7,2.8,4.7l7.6-1.8
				c-0.9-3.1-2.2-5.4-3.9-7c-2.9-2.8-6.7-4.1-11.4-4.1c-5.3,0-9.7,1.8-12.9,5.3c-3.3,3.5-4.9,8.4-4.9,14.8c0,6,1.6,10.7,4.9,14.2
				s7.4,5.2,12.5,5.2c4.1,0,7.5-1,10.1-3c2.7-2,4.6-5.1,5.7-9.3L275.8,465z"/>
		</g>
	</g>
</g>
<g id="XMLID_925_">
	<path id="XMLID_967_" class="st18" d="M451.1,324.6c-8.1-52-50.1-93.5-103.3-100c-5-0.6-9.4,3.3-9.4,8.3l0,0c0,4.2,3.1,7.8,7.3,8.3
		c45.8,5.5,81.8,41.2,88.8,85.9c0.6,4.1,4.2,7,8.3,7l0,0C447.9,334.2,451.9,329.6,451.1,324.6z"/>
	<path id="XMLID_966_" class="st18" d="M421.2,324c-7.7-35.6-36.5-63.7-73.1-69.8c-5.1-0.8-9.7,3.1-9.7,8.3l0,0c0,4.1,3,7.6,7.1,8.3
		c29.7,5,53.1,27.8,59.3,56.7c0.8,3.9,4.2,6.7,8.2,6.7l0,0C418.4,334.2,422.4,329.2,421.2,324z"/>
	<path id="XMLID_926_" class="st18" d="M389.3,323.1c-6.4-18.1-21.4-32.3-40.3-37.4c-5.4-1.5-10.7,2.5-10.7,8.1l0,0
		c0,3.7,2.5,7.1,6.1,8.1c13.5,3.7,24.3,13.8,28.9,26.7c1.2,3.4,4.4,5.7,7.9,5.7l0,0C387.1,334.2,391.2,328.5,389.3,323.1z"/>
</g>
<g id="XMLID_1544_">
	<circle id="XMLID_1548_" class="st2" cx="1094.6" cy="480.4" r="51.5"/>
	<circle id="XMLID_1547_" class="st19" cx="1094.6" cy="480.4" r="31.3"/>
	<circle id="XMLID_1546_" class="st20" cx="1094.6" cy="480.4" r="25.6"/>
	<path id="XMLID_1545_" class="st8" d="M1105.5,502c7.1-12.9,20.8-21.6,36.5-21.6c1.4,0,2.7,0.1,4,0.2
		c-0.1,28.3-23.1,51.3-51.5,51.3s-51.5-23.1-51.5-51.5c0-4,0.5-7.9,1.3-11.6c3.4-0.7,7-1,10.6-1
		C1077.9,467.7,1097.5,481.9,1105.5,502z"/>
	<path id="XMLID_417_" class="st7" d="M1105.5,502c-7.4-18.7-25-32.2-45.8-34c-1.4,3.9-2.1,8.1-2.1,12.4c0,20.5,16.6,37.1,37.1,37.1
		c20,0,36.3-15.9,37-35.7C1120.4,484.6,1111,492,1105.5,502z"/>
</g>
<g id="XMLID_692_">
	<g id="XMLID_710_">
		
			<ellipse id="XMLID_742_" transform="matrix(0.7071 -0.7071 0.7071 0.7071 -238.4377 1005.5604)" class="st21" cx="1094.6" cy="790.6" rx="110.8" ry="110.8"/>
		<path id="XMLID_741_" class="st22" d="M992.5,747.5h204.1c-16.8-39.8-56.2-67.6-102.1-67.6C1048.7,679.8,1009.3,707.7,992.5,747.5
			z"/>
		<g id="XMLID_734_">
			<path id="XMLID_738_" class="st22" d="M1070.3,873.9c-1.7,0-2.6-0.9-2.6-2.6v-96.5L1057,788c-0.5,0.5-1.1,0.8-1.8,0.9
				c-0.6,0.1-1.2-0.1-1.8-0.6c-0.5-0.5-0.9-1.2-1-1.9s0.1-1.3,0.6-1.9l15.3-18.5c0.7-1,1.7-1.2,2.9-0.6c1.1,0.3,1.6,1.1,1.6,2.3
				v103.6C1072.9,873,1072.1,873.9,1070.3,873.9z"/>
			<path id="XMLID_736_" class="st22" d="M1128.2,824.1c1.9,1.8,3.8,4.5,5.7,8c1.9,3.5,2.8,8.1,2.8,13.8c0,8.6-1.8,15.4-5.5,20.5
				c-3.7,5-8.5,7.6-14.7,7.6c-6.9,0-12-2.6-15.3-7.7c-3.2-4.8-4.8-11.8-4.8-20.9c0-1.7,0.9-2.6,2.6-2.6c0.6,0,1.2,0.2,1.7,0.7
				s0.7,1.1,0.7,1.9c0,8.1,1.3,14.1,4,18c2.6,3.8,6.3,5.6,11.1,5.6c4.6,0,8.3-2.1,11-6.3s4-9.8,4-16.8c0-4.8-0.8-8.7-2.3-11.6
				c-1.6-2.9-3.1-5.1-4.6-6.6c-2.1-2-4.3-3.5-6.6-4.3c-2.3-0.8-4.1-1.2-5.6-1.2h-0.2h-4.7c-0.6,0-1.2-0.2-1.7-0.7s-0.7-1-0.7-1.7
				s0.2-1.4,0.7-1.9s1-0.7,1.7-0.7h4.8c1.9,0,4-0.5,6.3-1.4c2.3-1,4.3-2.4,6.2-4.3c1.9-1.9,3.5-4.4,4.8-7.3c1.3-3,1.9-6.5,1.9-10.5
				c0-6.9-1.3-12.5-4-16.9c-2.6-4.2-6.2-6.3-11-6.3c-10.1,0-15.1,7.9-15.1,23.8c0,0.8-0.2,1.4-0.7,1.9s-1,0.7-1.7,0.7
				c-1.7,0-2.6-0.9-2.6-2.6c0-9.1,1.6-16.1,4.8-20.9c3.3-5.3,8.4-7.9,15.3-7.9c6.4,0,11.5,2.9,15.3,8.7c3.2,5,4.8,11.5,4.8,19.5
				c0,5.6-0.9,10.1-2.8,13.7c-1.9,3.5-3.8,6.2-5.7,8.1c-2.1,1.9-4.2,3.4-6.1,4.5C1124.3,821,1126.3,822.4,1128.2,824.1z"/>
		</g>
		<g id="XMLID_713_">
			<path id="XMLID_727_" class="st21" d="M1057.2,728.6c-1.6,0-2.8-0.5-3.6-1.5c-0.8-1-1.2-2.4-1.2-4.4c0-0.4,0.2-0.5,0.5-0.5
				c0.1,0,0.2,0,0.3,0.1c0.1,0.1,0.1,0.2,0.1,0.4c0,1.1,0.1,1.9,0.4,2.6c0.2,0.6,0.5,1.1,0.9,1.5c0.4,0.3,0.8,0.6,1.2,0.7
				c0.4,0.1,0.9,0.1,1.3,0.1c1.2,0,2.1-0.4,2.8-1.2c0.7-0.8,1-2,1-3.5c0-0.8-0.1-1.5-0.4-2s-0.6-1-1-1.3s-0.8-0.6-1.2-0.8
				c-0.4-0.2-0.8-0.4-1-0.5l-0.6-0.3c-0.3-0.1-0.7-0.3-1.2-0.6s-1-0.6-1.4-1.1c-0.5-0.5-0.8-1-1.2-1.7c-0.3-0.7-0.5-1.5-0.5-2.4
				c0-1.7,0.4-3.1,1.2-4.1c0.9-1.2,2.1-1.8,3.6-1.8c1.6,0,2.8,0.5,3.6,1.5c0.8,1,1.2,2.5,1.2,4.4c0,0.1,0,0.3-0.1,0.4
				c-0.1,0.1-0.2,0.2-0.4,0.2c-0.2,0-0.3-0.1-0.4-0.2c-0.1-0.1-0.1-0.2-0.1-0.4c0-1.7-0.3-2.9-1-3.7c-0.6-0.8-1.5-1.2-2.8-1.2
				c-1.2,0-2.1,0.5-2.7,1.4c-0.7,0.9-1,2.1-1,3.5c0,0.8,0.1,1.5,0.4,2c0.3,0.6,0.6,1,1,1.4s0.8,0.7,1.2,0.9c0.4,0.2,0.8,0.4,1.1,0.5
				l0.5,0.2c0.3,0.1,0.7,0.3,1.2,0.6c0.5,0.2,1,0.6,1.4,1c0.5,0.4,0.9,1,1.2,1.6c0.3,0.7,0.5,1.5,0.5,2.4c0,0.8-0.1,1.6-0.3,2.2
				c-0.2,0.7-0.5,1.3-0.9,1.8C1059.9,728,1058.7,728.6,1057.2,728.6z"/>
			<path id="XMLID_725_" class="st21" d="M1070.8,728.6c-0.5,0-1-0.1-1.5-0.2c-0.5-0.1-1-0.4-1.4-0.8c-0.4-0.4-0.8-1-1.1-1.7
				c-0.3-0.7-0.4-1.6-0.4-2.7v-16.3c0-0.1,0-0.2,0.1-0.3s0.2-0.1,0.4-0.1c0.1,0,0.2,0,0.3,0.1c0.1,0.1,0.1,0.2,0.1,0.3v16.3
				c0,1,0.1,1.8,0.3,2.4c0.2,0.6,0.5,1,0.8,1.3s0.7,0.5,1.1,0.6s0.8,0.1,1.2,0.1c0.4,0,0.7,0,1.1-0.1s0.8-0.3,1.1-0.6
				c0.3-0.3,0.6-0.8,0.8-1.3c0.2-0.6,0.3-1.4,0.3-2.4v-16.3c0-0.1,0-0.2,0.1-0.3s0.2-0.1,0.3-0.1c0.2,0,0.3,0,0.4,0.1
				s0.1,0.2,0.1,0.3v16.3c0,1.1-0.1,2-0.4,2.7s-0.6,1.3-1,1.7s-0.9,0.7-1.4,0.8C1071.8,728.5,1071.3,728.6,1070.8,728.6z"/>
			<path id="XMLID_723_" class="st21" d="M1089.5,728.6c-0.2,0-0.4-0.1-0.5-0.3l-7.6-18.8v18.6c0,0.4-0.2,0.5-0.5,0.5
				c-0.4,0-0.5-0.2-0.5-0.5v-21.3c0-0.3,0.1-0.5,0.4-0.5s0.5,0.1,0.6,0.3l7.5,18.8v-18.6c0-0.1,0-0.2,0.1-0.3s0.2-0.1,0.4-0.1
				s0.3,0,0.4,0.1s0.1,0.2,0.1,0.3v21.3C1090,728.4,1089.9,728.6,1089.5,728.6L1089.5,728.6z"/>
			<path id="XMLID_720_" class="st21" d="M1098.7,728.6h-3.3c-0.4,0-0.5-0.2-0.5-0.5v-21.3c0-0.1,0-0.2,0.1-0.3s0.2-0.1,0.4-0.1h3.3
				c1.8,0,3.1,0.5,3.9,1.6c0.8,1,1.2,2.4,1.2,4.4v10.3c0,2-0.4,3.5-1.2,4.4C1101.7,728.1,1100.4,728.6,1098.7,728.6z M1095.9,727.6
				h2.8c1.4,0,2.5-0.4,3.1-1.2c0.7-0.8,1-2.1,1-3.8v-10.3c0-1.7-0.3-3-1-3.8s-1.7-1.2-3.1-1.2h-2.8V727.6z"/>
			<path id="XMLID_717_" class="st21" d="M1119.8,728c0,0.1,0,0.3-0.1,0.4c-0.1,0.1-0.2,0.2-0.3,0.2h-0.1c-0.3,0-0.4-0.1-0.5-0.4
				l-1.5-6.4h-5.9l-1.5,6.4c0,0.1-0.1,0.2-0.2,0.3s-0.2,0.1-0.4,0.1c-0.2,0-0.3-0.1-0.3-0.2c-0.1-0.1-0.1-0.2,0-0.4l4.9-21.3
				c0.1-0.3,0.2-0.4,0.5-0.4s0.5,0.1,0.5,0.4L1119.8,728z M1117,720.8l-2.7-11.6l-2.7,11.6H1117z"/>
			<path id="XMLID_714_" class="st21" d="M1136.4,706.4c0.1,0.1,0.2,0.2,0.3,0.3c0,0.1,0,0.3-0.1,0.4l-5.8,10.5v10.5
				c0,0.1,0,0.2-0.1,0.3s-0.2,0.1-0.4,0.1c-0.2,0-0.3,0-0.4-0.1s-0.1-0.2-0.1-0.3v-10.5l-5.8-10.5c-0.1-0.1-0.1-0.2,0-0.4
				c0-0.1,0.1-0.2,0.2-0.3s0.3-0.1,0.4,0c0.1,0,0.2,0.1,0.3,0.2l5.4,9.8l5.4-9.8c0.1-0.1,0.2-0.2,0.3-0.2
				C1136.2,706.3,1136.3,706.3,1136.4,706.4z"/>
		</g>
		<path id="XMLID_711_" class="st23" d="M989.4,755.8h210.4c-0.9-2.8-2-5.6-3.1-8.3H992.5C991.3,750.2,990.3,753,989.4,755.8z"/>
	</g>
	<g id="XMLID_697_">
		<g id="XMLID_703_">
			<g id="XMLID_704_">
				<path id="XMLID_709_" class="st7" d="M1216.9,733.9c-1.3,0-2.6,0.1-3.9,0.3c-3.6-14-16.3-24.4-31.5-24.4
					c-16.2,0-29.6,11.8-32.1,27.2c-2.1-0.5-4.3-0.8-6.5-0.8c-14.5,0-26.3,11.8-26.3,26.3s11.8,26.3,26.3,26.3h72.9v-0.1
					c0.4,0,0.7,0,1.1,0c15.1,0,27.4-12.3,27.4-27.4C1244.3,746.2,1232,733.9,1216.9,733.9z"/>
				<g id="XMLID_705_">
					<path id="XMLID_708_" class="st24" d="M1240.7,774.9c-1.9-16.2-15.6-28.7-32.3-28.7c-12.2,0-22.9,6.8-28.5,16.8
						c5.9,5.4,9.5,13.1,9.5,21.7c0,1.4-0.1,2.8-0.3,4.1h26.6v-0.1c0.4,0,0.7,0,1.1,0C1227.1,788.7,1236,783.1,1240.7,774.9z"/>
					<path id="XMLID_706_" class="st25" d="M1179.9,762.9c-5.3-4.8-12.3-7.8-20-7.8c-16.3,0-29.5,13.2-29.5,29.5c0,0.3,0,0.7,0,1
						c3.7,2,7.9,3.1,12.4,3.1h46.3c0.2-1.3,0.3-2.7,0.3-4.1C1189.5,776.1,1185.8,768.3,1179.9,762.9z"/>
				</g>
			</g>
		</g>
		<g id="XMLID_698_">
			<path id="XMLID_702_" class="st3" d="M1220,703.5c-6.2-3.1-12.9-4.2-19.4-3.7c1.1,0.4,2.2,0.9,3.2,1.4
				c15.9,7.8,22.4,27.1,14.6,42.9c-7.8,15.9-27.1,22.4-42.9,14.6c-1.1-0.5-2.1-1.1-3.1-1.7c3.5,5.5,8.5,10.1,14.8,13.2
				c18.4,9.1,40.7,1.5,49.7-16.9C1245.9,734.9,1238.4,712.6,1220,703.5z"/>
			<g id="XMLID_699_">
				<path id="XMLID_701_" class="st26" d="M1225.3,744.1c-0.7,3.6-1.8,7.2-3.6,10.6c-4.4,8.9-11.5,15.4-19.9,19.2
					c12.1,0.5,24-4.9,31.5-14.9C1231.9,753.5,1229.1,748.4,1225.3,744.1z"/>
				<path id="XMLID_700_" class="st27" d="M1225.3,744.1c3.3-17.5-5.2-35.7-21.9-44c-0.3-0.1-0.6-0.3-0.9-0.4c-0.6,0-1.3,0-1.9,0.1
					c1.1,0.4,2.2,0.9,3.2,1.4c15.9,7.8,22.4,27.1,14.6,42.9c-7.8,15.9-27.1,22.4-42.9,14.6c-1.1-0.5-2.1-1.1-3.1-1.7
					c3.5,5.5,8.5,10.1,14.8,13.2c4.8,2.3,9.8,3.6,14.7,3.8c8.3-3.8,15.5-10.3,19.9-19.2C1223.4,751.3,1224.6,747.7,1225.3,744.1z"/>
			</g>
		</g>
	</g>
</g>
<g id="XMLID_282_">
	<circle id="XMLID_1586_" class="st22" cx="1098.5" cy="187.6" r="109"/>
	<path id="XMLID_1597_" class="st28" d="M1098.5,98.3c-49.3,0-89.3,40-89.3,89.3s40,89.3,89.3,89.3s89.3-40,89.3-89.3
		S1147.8,98.3,1098.5,98.3z M1098.5,265.5c-43,0-77.9-34.9-77.9-77.9s34.9-77.9,77.9-77.9s77.9,34.9,77.9,77.9
		S1141.5,265.5,1098.5,265.5z"/>
	<path id="XMLID_1583_" class="st29" d="M1098.5,265.5c-43,0-77.9-34.9-77.9-77.9s34.9-77.9,77.9-77.9c6.6,0,6.6-11.4,0-11.4
		c-49.3,0-89.3,40-89.3,89.3s40,89.3,89.3,89.3s89.3-40,89.3-89.3h-11.4C1176.4,230.6,1141.5,265.5,1098.5,265.5z"/>
	<g id="XMLID_244_">
		<path id="XMLID_283_" class="st0" d="M1042.7,197.9v-15.8h-3.2v-1.8h8.4v1.8h-3.2v15.8H1042.7z"/>
		<path id="XMLID_301_" class="st0" d="M1056.6,188.1v1.8h-4.3v6.2h5.3v1.8h-7.2v-17.5h7.2v1.8h-5.3v6h4.3V188.1z"/>
		<path id="XMLID_305_" class="st0" d="M1067.2,197.8h-1.9l-2.9-14v14h-1.7v-17.5h2.7l2.9,14l2.8-14h2.7v17.5h-1.9v-14.1
			L1067.2,197.8z"/>
		<path id="XMLID_308_" class="st0" d="M1078.9,180.3c2.8,0,3.9,1.6,3.9,4.3v2.1c0,2.8-1.3,4.2-4.1,4.2h-1.7v6.9h-2v-17.5H1078.9z
			 M1078.7,189.2c1.5,0,2.2-0.7,2.2-2.4v-2.3c0-1.6-0.6-2.4-2-2.4h-1.9v7.1L1078.7,189.2L1078.7,189.2z"/>
		<path id="XMLID_327_" class="st0" d="M1091.9,188.1v1.8h-4.3v6.2h5.3v1.8h-7.2v-17.5h7.2v1.8h-5.3v6h4.3V188.1z"/>
		<path id="XMLID_330_" class="st0" d="M1099.8,180.3c2.8,0,3.9,1.4,3.9,4v1.4c0,1.9-0.7,3.1-2.2,3.6c1.6,0.5,2.2,1.8,2.2,3.7v2.7
			c0,0.8,0,1.5,0.4,2.1h-2c-0.2-0.5-0.3-1-0.3-2.1V193c0-2-0.9-2.6-2.6-2.6h-1.4v7.5h-2v-17.5L1099.8,180.3L1099.8,180.3z
			 M1099.3,188.6c1.6,0,2.5-0.5,2.5-2.4v-1.7c0-1.6-0.6-2.4-2-2.4h-1.9v6.5L1099.3,188.6L1099.3,188.6z"/>
		<path id="XMLID_341_" class="st0" d="M1109,194.3l-0.7,3.5h-1.8l3.4-17.5h2.8l3.4,17.5h-2l-0.7-3.5H1109z M1109.3,192.6h3.9
			l-2-10.1L1109.3,192.6z"/>
		<path id="XMLID_344_" class="st0" d="M1120.4,197.9v-15.8h-3.2v-1.8h8.4v1.8h-3.2v15.8H1120.4z"/>
		<path id="XMLID_346_" class="st0" d="M1130,193.7c0,1.6,0.6,2.5,2.1,2.5c1.4,0,2-1,2-2.5v-13.4h1.8v13.3c0,2.7-1.2,4.4-3.9,4.4
			c-2.7,0-3.9-1.8-3.9-4.4v-13.3h1.9V193.7z"/>
		<path id="XMLID_348_" class="st0" d="M1143.1,180.3c2.8,0,3.9,1.4,3.9,4v1.4c0,1.9-0.7,3.1-2.2,3.6c1.6,0.5,2.2,1.8,2.2,3.7v2.7
			c0,0.8,0,1.5,0.4,2.1h-2c-0.2-0.5-0.3-1-0.3-2.1V193c0-2-0.9-2.6-2.6-2.6h-1.4v7.5h-2v-17.5L1143.1,180.3L1143.1,180.3z
			 M1142.6,188.6c1.6,0,2.5-0.5,2.5-2.4v-1.7c0-1.6-0.6-2.4-2-2.4h-1.9v6.5L1142.6,188.6L1142.6,188.6z"/>
		<path id="XMLID_351_" class="st0" d="M1156.5,188.1v1.8h-4.3v6.2h5.3v1.8h-7.2v-17.5h7.2v1.8h-5.3v6h4.3V188.1z"/>
	</g>
</g>
<g id="XMLID_555_">
	<path id="XMLID_560_" class="st30" d="M457,745.5c6.1,4.9,10.1,12.4,10.1,20.9c0,20.9-24.5,36.9-26.5,38.2c2.6,1.9,4.3,2.9,4.3,2.9
		s26.6-16.5,26.6-38.3C471.6,758.8,465.6,749.9,457,745.5z"/>
	<path id="XMLID_556_" class="st31" d="M457,745.5c-3.6-1.9-7.7-2.9-12.1-2.9c-14.7,0-26.6,11.9-26.6,26.6
		c0,16.7,14.8,29.7,22.3,35.3c2-1.2,26.5-17.3,26.5-38.2C467.1,757.9,463.2,750.4,457,745.5z M444.9,782.9c-3.7,0-7-1.5-9.5-3.8
		c-2.6-2.5-4.2-6-4.2-9.9c0-7.6,6.2-13.7,13.7-13.7c1.8,0,3.5,0.4,5.1,1c5.1,2,8.7,7,8.7,12.8C458.7,776.8,452.5,782.9,444.9,782.9z
		"/>
</g>
<g id="XMLID_453_">
	<path id="XMLID_454_" class="st32" d="M458.7,769.2c0-5.8-3.6-10.8-8.7-12.8c-1.6-0.6-3.3-1-5.1-1c-7.6,0-13.7,6.2-13.7,13.7
		c0,3.9,1.6,7.4,4.2,9.9c2.5,2.4,5.8,3.8,9.5,3.8C452.5,782.9,458.7,776.8,458.7,769.2z"/>
	<path id="XMLID_456_" class="st32" d="M467.1,754.5L467.1,754.5c2.8,4.2,4.4,9.3,4.4,14.7c0,21.8-26.6,38.3-26.6,38.3l21,21
		c17-6.7,30-21.1,34.6-39L467.1,754.5z"/>
</g>
</svg>
